<mxfile host="65bd71144e">
    <diagram name="Page-1" id="mZfetWtHpSqfafEJosNf">
        <mxGraphModel dx="785" dy="1798" grid="1" gridSize="10" guides="1" tooltips="1" connect="1" arrows="1" fold="1" page="1" pageScale="1" pageWidth="850" pageHeight="1100" math="0" shadow="0">
            <root>
                <mxCell id="0"/>
                <mxCell id="1" parent="0"/>
                <mxCell id="pghFincrohtmEz2olSug-7" value="Home&lt;br&gt;&lt;br&gt;About&lt;br&gt;&lt;br&gt;Skills&lt;br&gt;&lt;br&gt;Projects&lt;br&gt;&lt;br&gt;Contact" style="rounded=0;whiteSpace=wrap;html=1;" parent="1" vertex="1">
                    <mxGeometry x="40" y="80" width="120" height="190" as="geometry"/>
                </mxCell>
                <mxCell id="sKO5neCifR1RI9vhv73q-4" value="&lt;b&gt;Ideas:&lt;/b&gt;&lt;br&gt;Maybe add animation when scrolling further past each page will go to the next page" style="rounded=0;whiteSpace=wrap;html=1;" parent="1" vertex="1">
                    <mxGeometry x="220" y="145" width="270" height="255" as="geometry"/>
                </mxCell>
                <mxCell id="RhYwi4Nr0WYsUU9BLPxB-9" value="" style="rounded=0;whiteSpace=wrap;html=1;strokeColor=none;movable=1;resizable=1;rotatable=1;deletable=1;editable=1;locked=0;connectable=1;" parent="1" vertex="1">
                    <mxGeometry x="520" y="640" width="960" height="980" as="geometry"/>
                </mxCell>
                <mxCell id="RhYwi4Nr0WYsUU9BLPxB-10" value="" style="rounded=0;whiteSpace=wrap;html=1;" parent="1" vertex="1">
                    <mxGeometry x="520" y="640" width="260" height="980" as="geometry"/>
                </mxCell>
                <mxCell id="RhYwi4Nr0WYsUU9BLPxB-12" value="" style="ellipse;whiteSpace=wrap;html=1;aspect=fixed;" parent="1" vertex="1">
                    <mxGeometry x="616.25" y="690" width="60" height="60" as="geometry"/>
                </mxCell>
                <mxCell id="RhYwi4Nr0WYsUU9BLPxB-13" value="&lt;font size=&quot;1&quot; style=&quot;&quot;&gt;&lt;b style=&quot;font-size: 24px;&quot;&gt;Andrew Forster&lt;/b&gt;&lt;/font&gt;" style="text;html=1;strokeColor=none;fillColor=none;align=center;verticalAlign=middle;whiteSpace=wrap;rounded=0;" parent="1" vertex="1">
                    <mxGeometry x="552.5" y="765" width="201.25" height="30" as="geometry"/>
                </mxCell>
                <mxCell id="RhYwi4Nr0WYsUU9BLPxB-14" value="&lt;font style=&quot;font-size: 16px;&quot;&gt;Home&lt;/font&gt;" style="rounded=0;whiteSpace=wrap;html=1;strokeColor=none;align=left;" parent="1" vertex="1">
                    <mxGeometry x="560" y="810" width="77.5" height="50" as="geometry"/>
                </mxCell>
                <mxCell id="RhYwi4Nr0WYsUU9BLPxB-15" value="&lt;font style=&quot;font-size: 16px;&quot;&gt;About&lt;/font&gt;" style="rounded=0;whiteSpace=wrap;html=1;strokeColor=none;align=left;" parent="1" vertex="1">
                    <mxGeometry x="560" y="860" width="77.5" height="50" as="geometry"/>
                </mxCell>
                <mxCell id="RhYwi4Nr0WYsUU9BLPxB-16" value="&lt;font style=&quot;font-size: 16px;&quot;&gt;Skills&lt;/font&gt;" style="rounded=0;whiteSpace=wrap;html=1;strokeColor=none;align=left;" parent="1" vertex="1">
                    <mxGeometry x="560" y="910" width="77.5" height="50" as="geometry"/>
                </mxCell>
                <mxCell id="RhYwi4Nr0WYsUU9BLPxB-17" value="&lt;font style=&quot;font-size: 16px;&quot;&gt;Portfolio&lt;/font&gt;" style="rounded=0;whiteSpace=wrap;html=1;strokeColor=none;align=left;" parent="1" vertex="1">
                    <mxGeometry x="560" y="960" width="77.5" height="50" as="geometry"/>
                </mxCell>
                <mxCell id="RhYwi4Nr0WYsUU9BLPxB-18" value="&lt;font style=&quot;font-size: 16px;&quot;&gt;Contact&lt;/font&gt;" style="rounded=0;whiteSpace=wrap;html=1;strokeColor=none;align=left;" parent="1" vertex="1">
                    <mxGeometry x="560" y="1010" width="77.5" height="50" as="geometry"/>
                </mxCell>
                <mxCell id="RhYwi4Nr0WYsUU9BLPxB-19" value="&lt;font style=&quot;font-size: 32px;&quot;&gt;&lt;b&gt;Aspiring Software Developer&lt;/b&gt;&lt;/font&gt;" style="text;html=1;strokeColor=none;fillColor=none;align=center;verticalAlign=middle;whiteSpace=wrap;rounded=0;" parent="1" vertex="1">
                    <mxGeometry x="780" y="640" width="500" height="80" as="geometry"/>
                </mxCell>
                <mxCell id="RhYwi4Nr0WYsUU9BLPxB-20" value="&lt;div style=&quot;&quot;&gt;&lt;b style=&quot;background-color: initial; font-size: 24px;&quot;&gt;&amp;nbsp; About Me&lt;/b&gt;&lt;/div&gt;" style="rounded=1;whiteSpace=wrap;html=1;arcSize=9;align=left;" parent="1" vertex="1">
                    <mxGeometry x="800" y="730" width="220" height="90" as="geometry"/>
                </mxCell>
                <mxCell id="RhYwi4Nr0WYsUU9BLPxB-34" value="" style="shape=image;verticalLabelPosition=bottom;labelBackgroundColor=default;verticalAlign=top;aspect=fixed;imageAspect=0;image=data:image/svg+xml,%3Csvg%20%20xmlns=%22http://www.w3.org/2000/svg%22%20%20width=%2224%22%20%20height=%2224%22%20%20viewBox=%220%200%2024%2024%22%20%20fill=%22none%22%20%20stroke=%22white%22%20%20stroke-width=%222%22%20%20stroke-linecap=%22round%22%20%20stroke-linejoin=%22round%22%20%20class=%22icon%20icon-tabler%20icons-tabler-outline%20icon-tabler-share-2%22%3E%3Cpath%20stroke=%22none%22%20d=%22M0%200h24v24H0z%22%20fill=%22none%22/%3E%3Cpath%20d=%22M8%209h-1a2%202%200%200%200%20-2%202v8a2%202%200%200%200%202%202h10a2%202%200%200%200%202%20-2v-8a2%202%200%200%200%20-2%20-2h-1%22%20/%3E%3Cpath%20d=%22M12%2014v-11%22%20/%3E%3Cpath%20d=%22M9%206l3%20-3l3%203%22%20/%3E%3C/svg%3E;imageBackground=none;rotation=90;" parent="1" vertex="1">
                    <mxGeometry x="970" y="755" width="40" height="40" as="geometry"/>
                </mxCell>
                <mxCell id="RhYwi4Nr0WYsUU9BLPxB-35" value="&lt;div style=&quot;font-size: 16px;&quot;&gt;&lt;b style=&quot;font-size: 24px; background-color: initial;&quot;&gt;1+ &lt;/b&gt;&lt;span style=&quot;background-color: initial;&quot;&gt;&lt;font style=&quot;font-size: 16px;&quot;&gt;Year of&amp;nbsp;&lt;/font&gt;&lt;/span&gt;&lt;/div&gt;&lt;div style=&quot;font-size: 16px;&quot;&gt;&lt;span style=&quot;background-color: initial;&quot;&gt;&lt;font style=&quot;font-size: 16px;&quot;&gt;Experience&amp;nbsp;&lt;/font&gt;&lt;/span&gt;&lt;/div&gt;" style="rounded=1;whiteSpace=wrap;html=1;arcSize=9;align=center;" parent="1" vertex="1">
                    <mxGeometry x="800" y="845" width="220" height="125" as="geometry"/>
                </mxCell>
                <mxCell id="RhYwi4Nr0WYsUU9BLPxB-38" value="&lt;span style=&quot;font-size: 24px;&quot;&gt;&lt;b&gt;&amp;nbsp; &amp;nbsp;Project Portfolio&lt;br&gt;&lt;br&gt;&lt;br&gt;&lt;br&gt;&lt;br&gt;&lt;br&gt;&lt;br&gt;&lt;/b&gt;&lt;/span&gt;" style="rounded=1;whiteSpace=wrap;html=1;arcSize=9;align=left;" parent="1" vertex="1">
                    <mxGeometry x="800" y="1000" width="620" height="240" as="geometry"/>
                </mxCell>
                <mxCell id="RhYwi4Nr0WYsUU9BLPxB-39" value="&lt;font style=&quot;font-size: 18px;&quot; face=&quot;Helvetica&quot;&gt;View&lt;/font&gt;" style="rounded=1;whiteSpace=wrap;html=1;arcSize=8;fontFamily=Teko;fontSource=https%3A%2F%2Ffonts.googleapis.com%2Fcss%3Ffamily%3DTeko;fontSize=32;align=center;fillColor=none;strokeColor=none;" parent="1" vertex="1">
                    <mxGeometry x="1340" y="1013.5" width="60" height="43" as="geometry"/>
                </mxCell>
                <mxCell id="RhYwi4Nr0WYsUU9BLPxB-40" value="" style="rounded=1;whiteSpace=wrap;html=1;arcSize=5;" parent="1" vertex="1">
                    <mxGeometry x="810" y="1060" width="600" height="170" as="geometry"/>
                </mxCell>
                <mxCell id="RhYwi4Nr0WYsUU9BLPxB-43" value="&lt;div style=&quot;&quot;&gt;&lt;b style=&quot;background-color: initial; font-size: 24px;&quot;&gt;&amp;nbsp;&amp;nbsp;&lt;/b&gt;&lt;/div&gt;&lt;div style=&quot;&quot;&gt;&lt;b style=&quot;background-color: initial; font-size: 24px;&quot;&gt;&lt;br&gt;&lt;/b&gt;&lt;/div&gt;&lt;div style=&quot;&quot;&gt;&lt;b style=&quot;background-color: initial; font-size: 24px;&quot;&gt;&lt;br&gt;&lt;/b&gt;&lt;/div&gt;&lt;div style=&quot;&quot;&gt;&lt;b style=&quot;background-color: initial; font-size: 24px;&quot;&gt;&lt;br&gt;&lt;/b&gt;&lt;/div&gt;&lt;div style=&quot;&quot;&gt;&lt;b style=&quot;background-color: initial; font-size: 24px;&quot;&gt;&lt;br&gt;&lt;/b&gt;&lt;/div&gt;&lt;div style=&quot;&quot;&gt;&lt;b style=&quot;background-color: initial; font-size: 24px;&quot;&gt;&amp;nbsp; Student at Grand&amp;nbsp;&lt;/b&gt;&lt;b style=&quot;background-color: initial; font-size: 24px;&quot;&gt;Canyon&lt;/b&gt;&lt;/div&gt;&lt;div style=&quot;&quot;&gt;&lt;b style=&quot;background-color: initial; font-size: 24px;&quot;&gt;&amp;nbsp; University&lt;/b&gt;&lt;/div&gt;" style="rounded=1;whiteSpace=wrap;html=1;arcSize=9;align=left;" parent="1" vertex="1">
                    <mxGeometry x="1040" y="730" width="380" height="240" as="geometry"/>
                </mxCell>
                <mxCell id="RhYwi4Nr0WYsUU9BLPxB-45" value="" style="shape=image;verticalLabelPosition=bottom;labelBackgroundColor=default;verticalAlign=top;aspect=fixed;imageAspect=0;image=data:image/webp,UklGRnwYAABXRUJQVlA4TG8YAAAvc8S9EGcwK2M1mYrbRlJj+4RjZgzAFTwePhwKNCIcNiYQmLZte5w4WqlKAbGSs5E3crYRC7WzjRZMTlowOWnB5KQFM/Plz0GTkxZictACcDbaNEzqplatJqiqflU3bhX1PPf9vOILFdF/arT1hm2bjz1q7STYMWOIBAiAn+T98i5wWu4/cv+R+4/cf+T+I/cfuf/I/UfuP3L/kfuP3H/k/iP3H7n/yP1H7j9y/5H7j9x/5P4j9x+5/8j9x/9ficZ//Dut9tmn/DSo/RuvbvrGU34q/Fj6xfzMl8H6fwi/1g9nhdo0IdZ++VCafjpm1k1/eTgNJolwC4VwTfq13p3Zy9tnhiR8LgWGCbX2kTSnHWkMPBlcF8ajGZ5SuSFN97Vibn+eVzeUdIVwIosXbry8DB9y+0cxzUNu7R5tD1eFEImil+nrmyTc2qAwEzvksOfPRF8YVRm0YkmMg0zRJ4fk8ZlYY9dNL8y2mWNZLAj9ZCKJe7NWDbZnjym7P4GuUb0og6Ekvpj9RI5cW5ptsbDD6kzsAsra0fBcdkLZ4UW2o/qer2nMGsHJelxgPGbXimRH9aQy02aO9BtYiqzeQSH7hY+YHZbZfqEzs5uOJNG+JSDcO2UJ5WD7cMIO44Ii98Wy0AqopKoJ4CAhayZt0eum0ixswMlagzIg+/RQJutJShZnT0LQZG0i/e216KE5e67L9gsngrICIVlY6sH3LUB3Pogm6wBrUfeIHX7Fdj449tXMB1/EklUWwjV6b4HZsUFsLYkNQSNLCFNJ7TDoG0OfvMu0EYPJiqTWlqSwRvctQA8VNS7TKtJ7aOxLoRWT9czUpuywoMbDW5LBhvrQNbYLCWW2lkRVzQ8KydqSUg45HJM9eBO22JFbPpHBROq75TBhe9hhi00sWdeFbABB7LBFny3WsGSdCo3HghiyfbDO9ltaCdJsuRaBPfY26bn02HovylpcO1UPZ+2zLok1eh7IFG8Bdm4vJSNXUhaSBfCYq09vTHdpOEhhMrNLuBh4oojJLXrj+r30WPFHSLJ2ZaJnMgaqN1iPcXPMVsEm7BIuyp5oOwWCEl08YqtgB1BVEABOqlyDtKpp3GxsFWwXKeEiUu+vYjvslNj62qtaHLx1IVn6HddsTx4B2xC4ihYHbwXHrVMyDOMCWxTTAEhWX+YrhmHgkcW4kAZAVRAuy1gAhqHLdmV45KUBkKyJ/iUPrlPdcDUV2CrYJrcqCGXDkCyyRVsL2kIQkeWzfKDGuLlMDfVUD3BkNSTwomcZArbfUkkFalUQOpYh9NmiqAUlmPiuqjy4ySKL0E8FaqUJy+I4JmsjeROysrwdZgkXoW8Z2mzRSwccWUdS7iqO0R1qjJsjtgq2jyPrVOo7zYooq7A9Nde1nJqbUiGlCHGIVEPRS2xPzVUtp+YFmNiOBXmwtZG8iKws75iZrKI4WmxtpBo1+FpOzYEMtiFKIDJN1nyRbbWYcSHd7BVG1j7iT/bZ2khr1GRpmTAPYGT15LHNDPelwgYzdLTMQbowstry2GeGBban5qaWOUgTJuGiLo/rbGXtUpOlRcGqpGSx9egFbBc9ymrWP2HsqxLRRQ8txs11tgp2TaksJaEAvmWu6xdtUDCY4rb76jN12FrXHbYVP0YpFQxG1kQkhNUyB2QT29OuxoqPiFVB6Mhji5qNxFbBVtIpGDNOBqvyuMbWRhqyje3YkFjFWoSJ7aia5kYK2LqRylrcSBWYuU5FHifEcFggG4kYFtMtDDArTViUj0SMM/ptHM5uV2e3P81u3/z6jBZpMW6+/3WUNtUSxPQ9gRf8DamEC0RZjT/+6Rcpeu0D75/ZnnriwSdnPZJYz0EzOhCHgIFsNyHOdUZEuYSJxHZgQ+LQA4KSyUOXJzZEtpiDRiu2T8HaPDGEy3xE9OjX2Y4kdZ7YETE61AAnOZytglVIQc2Ko+MqWJEnjpGNDpjkcHAFU59wQddGontqLkDjQL0sp7KRTujK4tFNjQduf+CB+x+4/YakW7Qnb+GNhJk6LqZ7439dohVkPPqREgVrSPTSIzAjSUce73n/127RWX/407vb2++8u936NxefbW2hqaOehAsUpW5pCWJaw6mCEEnIUjoDjc/r3oG2kXZg/CXrWmRtMONkUIVMuMChLutrSbgoyaCv5fXtMONkUFJgahELzx2ljO2AMbWGbBMuthB9Fw2YlfOaBHrYcejbEpqhR8EsS7hYljrgJlx0hLCrRTOmxDgZ9DCXhWAOy2pMLRh01cRCmZZwUYbRxgVoG8nb1iKLGSeDJuSyUCD1ApVoxjaO7TJU4i/dpFYFgeiy0DUlmrGPQz1gEzezqAwjqyyPU5xc1i2yyeHeuhLNOGCWcBHMBEg4O8pbYICkYDqMx9CHHkl21ctSYyPBvMIOdnK4V5vqULATYpwMBlTD2aewyeFyE08VmtHAUbBjxISLbaQp3fXsNQNKloqVrrYWBVuROjEjytoVCpsFsa9LUMnhKlxA9XQL/cw4GSyChrOjfEGRLJRRfQFa1pqILK6pt0eZa4YWf2kBZhgoQVdB6JOU1ZVcmtOgGcdQCtZSIYvY9o+hjyhrVVI9MnYC9dAUTP79NsaWNZGWhRPODuN6WNUS29GGyRLpafF69XjK6qPlsv41W83QYyNJtl/Ly8JRsCnJnSYC2cDHf0hrxhBNwWqvAe40USeacAE3pWu8gZdwURQ2XH4nnVnELOFiAVHWSDzc+kcxmI10KG67fCWS3VKF2RUilOQRIU7pPnEls4QLFsUUWm9ibakS+jwTLjBzzFuvZ6QZiuLQ5X83P46REi72YDgZjD1xrIMWmKp9JRZLDkctpvCJKVDCRY9nFYS+2JROQQ79P4USLtZEd5FUb0901SgYqe0fgXNm0/0yfxefXzP0FFNQ0r4fyVRBoMbJgHo9rE9EIsnhUpXUMM7OVTUjCc+EiyPRKZ12YylMuf2j1FI0xtm5Ap1ZtIG5/SN4gakfR+cybjyVNpK8Syn7hAtinAySAFOWqvbe6XmseEoVDi+9ca7JA/RIss854UJeZV4/R8IFpw0raudwvA+wy30cqfeu6bORtBtLTT3lPpS1wieuKE+46JAiSqQvOVyPsfQPrIpteh3vbTUjCU4VBNzYDm3f9ds4nWbw2rCilvLsXIdWsJZ6RVZkI2lsX76aauFSZbkP1S6lCnRdm3WSVRAGWot7v6G3CkJBaY3q3+pNuAjsq4KgcuiJZxodajfXU+t4P8QOYtoXCZbClaVz6LmCUbFNr+N9DM7JQFqRgYtUa1pVmJFwoSc5XG+r/TjSmHDRNbY0odZVhSrDXSTfe+XcspiRUW7L45qMLNXt0lv6Ei7KyvddfCO+BZcscE4G6hUZImdWVcBooKncB8bZeUFNbIdlnAx+5Z2vaQoYDQssd5G89I93aQa0gvUhFVl8x3vVLqURzx3va2cd7wHZKghjn8PmejpXFVLLYrWL5M2117GezCKYhAu7drx/7z+TtvpyH+qihV7ELvdxjKjIw/Aw8wazs3bj9ZQJFwLdFC+CdFPtRx9LqWAC3UQ04aL1pECD2c655qd7H0t0E852zrel6zuJbroDRlbds7bVPAMbUMLFPNHocjKYR4GTcDFXgC0ng8IcCqCEizkUOAkXFwa3syuSyGCaR4GTcDGPAmf7x4sCbF0MyAKqgjCHguf2j633C7QA23Zh20219wl000NMEy6yDz6Isad0GxLdtASNNYHYjhCHk0E7YzBIDscs94G9/snsRp1VzaXMts/WdhnikFFmyckAfFnIPm54SQBLRpkf1V/bFAybk4H6hAsKyeGICtbFAVtOBiNIb3mV7bJQE3v907aEC7brLOsiyeFsFWxFCFPEDKZ9tmGzfWrcedlyMqjPobLKOGSUHYiWfAiuYJZVQahN2dpIx3QVjNmlMdMvTeiOF5owkZCFyckA27qODbzQBBxZTmQj4chiy8mgI4/LdG0kCxUMJ+ECkpa8W/Hvp8bJwFwbaSJS3hwHLsTJYC650IQtkahAF7KR6AYx2cbJwHVlwTg6X8TkZOAsF8XDlpPBx+hyMlAQxERNwehyMpgrZLHlZFCly8kAc0sVHNDlZOBANtKIbcJFiMPJYL6Q5bqcDBwos2jAswrCpoE20jK2LGZXiNClmxzuRJlFMEPAqhPFodNVMBwyyvYmh1Mr98H2fhVU7E0OdxWvV99CTga2ZRaRvV8FoT9PyHJeTgamlftgy8mg60BVEJIltgq2SpSTwZwoqxFzrIIQ8o1Dx4G9nAwMlOXbWAUBMuHCKWWZe4UIfGM7DMwsgpG150Q2Et0anDjbP9JNDre33EfC7AoRzLWRNg2sgrCMk3ABaSOZKgtzJLHsniCN2SaHJ+AKZlrCxac+nX17GhufFOimD3jQ+MSnBZp/8cnJYPy/cjgZdOcKkHV0hs0LHE4Gixc4nAwqFwUYXqhxMggvdDgZzKHA4WRwcSMraZPptwcUtNudTVYs8JU6GwfqOwraN+90M6zzl/WqjnsJ+KgryyryOVmraOb/wSGjzNAolejMohPLGkFOpgvZj/MScQe6usnHhohpYhkZ5biMcLs6F86hERLsjsHLfUh004rdCRd9LX/N55wMplpuhKrlnAwMvzTmXSVYTY2Jq3Ay2CRJlKiLIXhkNyeDMQ4ngwA+OVzxPZItWkGUiNq9eoJMDge5v6rVOYiTgdjUEUBwez7nZLCpAz1FCjZ3cDIAEDyye/tHy27U2UjIwhCxbczmZMCTjLJSG6mhQnAYGM3JIBFSsCFzTgYqP83BlDg1cJ9T+zgZQAguOS4ngwGvqeORCjguJ4MOLicDCMFFqzkZwCxdrRDjZHCq4Vscl5PBErEdvLc0CHJcTgZlYlPHRiQP1+VkUISdOkIIftFsTgaWkVFuKpmVit1EEofkZDDC5WQAIbhpAieDmBgngx63qeOGNKpOxclgypSTAYTg0pzKyQBDcKCFkwFfWeZxMoAQPPapcjKAzyzqM71CBAjBLzrVPqf7TMkoQwjuOi4ng1EBkpMBTEGNplNdCsUxU04GEIKrJuxzGhPjZNAhOHU8EUTFcTkZLONOHSEE843tYPtZHiwQzJmtyQkOC/M/J4N9MQxcl5NBwDBn9pIYOmZzMrAs4WJJ6tcmoRkXAZwMdqW+UreBkwGzhAvgnFkE/3V5fuVkALDcWrSak4FlZJRHUvNTEePGatbVOJwMSF620YEMRjZUQaBGRpnk1HEog55TydpX75cFTg7fEEq4MLoKwos8Za2/I9DKQhNHLZrRkuime7FlvS3QTS/w5GRQu02g4XyYgAtaugkor1RNN8FwMgD2y0IsthYvCDgZnIrAnz85GSB9itouhb5lI8mxiCzX5WTgW4aO1QC6CkfLsOy4nAy6pqHqvJwMLPuWstXglHDB1vsfBq7LycCy0/jYdTkZlCw7jQ8cl5NBGFjmlf+Y63IyMG0CsOK6vBdN88ovOZWsKTNZmFf76Lgr9PfxxIHjxnasUXPvQpJe9i8KbtTZdO6QlQRE3UiOS112ojjmCo15kJpP8cdqokRE71Dy3juZt6s4Wz4tpnvjvyPQTfdim1pXBbrpBdM4GRRhJgAVlyJK1NBPRhk6OfyaiGbMoZwMYCYAoe9UnAwgh4CI2MeoPXIrTgYsL40Zp9Sa2deAjbIwcKiAKBEzrmttqzkZ2HZpzDCvr241JwOchAueK+dDEc0wmpPBsmk36gxny6eS43IyqEPu4I1T/3yu4GSghj8OzARgjH1/3J9ALk2IQ0aZp6wpW04GR58PyHIy4HhpzGETRxb29o/T5C8PuygnAxziN/A2UvhcQcP9KnANTgY4xg2BT0H0v+6wjJNBm+e91ruMzMlAdAgYP2sYJ4M6Ua5r1DgZnEszwi/4eCMJDhllyPtVoFYW8md5cE7NGD3kkpwMsOufnyB+CqLhhwtYsnyY6COe96ugERH/FETD5L8CizgZjDE5GaBMAEI9nAxUKNhY7mpHnfDuGW5S42SQjWZ83ocZSVbBEi4oTh13qHEyyEgz/nKnE3IygJa1i3ynP8PnCo6RcHGCs55jwv+TEf8VELtCBJJklDs4xg0jBdt7xCk4GeDEdsTAnAyUKdhHfKfjZFDFie0gxR/nVw+R4mRAkoxyBefTZsDhZJC1Zoyfc1pOBpqt+E0O/HG+fQcjTgaQZJRxuK7hcjIIVfLH2XvYAk4GS5BVEIDcVcwyi8LPFxRzMjCNjDLOhUWRC2L6yx0ZybKNkwGMrAiYk4HaIWD8bMHBOBngrDhiJ4dno2DfDnRyMiAlC9pGWqNWBUFQM0YPq7xsI56cDHaYcV1boJhZ9BFfXyzUfaRu1JmaOHRoWTt8Mot+eae6kWQBmpOBGes5CZAsYc0Y36VtJCnx5L0ocf/un8LRjHQm03slukm/go2D8/0/zyDQCrZzMjChpuAxMnkETmSUwRnvm8YieYEzJwNSLDvsvbSDAeVdp3pEt3wy7tIOKviITNv+0TgWyR2n5WQwoXvbC9luOLhO7fNScp6brlphzMnAtO0fuc50m+jYtYyTwf0inAy4KtiLfEeSPdN+cgX7JyU4iLnrhr77bGUN2e79u2Ya9a0TtlPH62wnulsSaBKlmwC8EigXZcP1B4+0czIgoIxMXTN9tu+ARiwiy7LHA7bnjiW254MkMGyZNemy7aY6XT6aPs8lD7JTx+siWAJf27NL1losgkXsxSeyTx9rH0nwTQ6qRtKJEHdmaOeuCFZJ4gdJwnXq+Bupi4YEdrRMhU7NJJ+LZBD6sPiS2C3owMXfEv2nZnRdJEqm4OOR2EVDwuI1Mgqm8FNTZzp1/Eqk5/qkYD6i0FDsQrz44dJPokQKbVD1eiNOpNAD/ddXriQJ6kiy/uc/KW9vHyY3m6IrRNDfTbGy23vT+OOftLdbfLbfmFUQYJqeKggwTQ0jKKBuguRkwAwlCxSsDwTEhIsjHKjhZIABTTbSNg4wL42ZGPbAFUxLcvgBNQVTEE+CAzWcDIhhxHckkY8QZDt1rEXE0AUfSSA5GTBDk66NRHckkcc2Wxtpg5qNxHYk+Zg89tlOHYcOqWBNlrL0xHbUqClYiexIElaJylKz/SOzt0CAPZJAXoVjxHbqeMJMwfiOJJbJ6tJVML4jiXyEuEPaSB2+CiaOITNU2SpYk66CmSarzFbBltjKWiUa26GGkwE1Gwk7tgOTkwExHLKVlYDLwuRkQAwDurJ8tgpWlJcVs506Ttkq2LETytLDycAdvV4jBWWN2NpIa2xtpAaAe9dREi7KdBMu2I4kK6bJKrKVVWHr9aorKPfC1kaasJW1Y4YsunHobBUsTKlgjp5w0bNBlhkJFybYSGxleVNHT7ioO27CRc+0hIuK6ypYxrAgZ3aHroI5uqyEr41Et9yHabIKdJPD6da1kZcVsZ06nrpjFYTENFmdlApGt9yHGbEddJPDbSj3YYYsx00Ov4+ugtmWcDHvVEGYsE0O32Yrq2+arOtsk8Mvs43tGJohi625+iJbT/u4wBaBZeiwnQ72PLIYFyzDCttDhy0GnmVPV1Me2JZR36KmYJb9WIltgkiV7aFpGgKPrKAy2Ry6sK4Au2ynjn22CrbBTMFm3iupwo3/wBncdhv/VY8B2xTqw0I6tBgq2CQ8+9FuDMPRmZX3MAzor7R22dZSHLAtGhr6M02zxe0kCc6ewTJDi+3UsRaxtZFO+SlY7Yf//rN4/O8/K91A+YzRHAb0YxEX2QbdrrA1fLozzgK9s9by0tnfa3Y4YrtZ2AHbOPQdiil0jTPYDqP2zRPYO6kObPs0YFsrpsw21LOe5jD+e+/mpOmnGR7W2ObMNmKyyeG1Ka3YjlSHV8cFbyP8TaoD2T4dsM0uGvtsV5WKaQ7hl2/8/NZoOwnYpwh202OLbXL4Jq2RJM0heeDGnHbS3Q4D9lkXbbY1P3psh5Kxl+rH/KjuHTXTHciOO3W2K3yrbJeVvuOlejo4bteiaqYHb4PtDt5rMTOvF88aru10h2DyYisp7mQbpXjMNjz3r6Ti0Mn+tZzysDXeSPydMFOsxWQLWbUiUhXbuH55IeVhI/ntwMv44P1aP7RRl/0u2+Tw9ZjRSJLy0Iqvdr2MD17tNbY5s79RL0sdcf4fMloYSHnwoqSZ+cGrvc42Z/Y3Mdnk8O9HfLxeKQ/eUVK9ecicltQVsuG5n3iLbBz6e9+MmS0MNG5xuJYUz3U4h2fvyU9RaUEG3fQEl266M4PBhEw3PTyrTz719E3z7AO+954PFM78By5wWu4/cv+R+4/cf+T+I/cfuf/I/UfuP3L/kfuP3H/k/iP3H7n/yP1H7j9y/5H7j9x/5P4j9x+5/8j9x/9bCQ8A;" parent="1" vertex="1">
                    <mxGeometry x="1095" y="720" width="270" height="180" as="geometry"/>
                </mxCell>
                <mxCell id="RhYwi4Nr0WYsUU9BLPxB-48" value="&lt;font size=&quot;1&quot; style=&quot;&quot;&gt;&lt;b style=&quot;font-size: 24px;&quot;&gt;Lets Get in Contact&lt;/b&gt;&lt;/font&gt;" style="text;html=1;strokeColor=none;fillColor=none;align=center;verticalAlign=middle;whiteSpace=wrap;rounded=0;" parent="1" vertex="1">
                    <mxGeometry x="800" y="1270" width="250" height="30" as="geometry"/>
                </mxCell>
                <mxCell id="RhYwi4Nr0WYsUU9BLPxB-51" value="&lt;font face=&quot;Helvetica&quot;&gt;&lt;span style=&quot;font-size: 20px;&quot;&gt;Send Message&lt;/span&gt;&lt;/font&gt;" style="rounded=1;whiteSpace=wrap;html=1;arcSize=8;fontFamily=Teko;fontSource=https%3A%2F%2Ffonts.googleapis.com%2Fcss%3Ffamily%3DTeko;fontSize=32;align=center;fillColor=#6666FF;strokeColor=none;" parent="1" vertex="1">
                    <mxGeometry x="810" y="1378.5" width="240" height="43" as="geometry"/>
                </mxCell>
                <mxCell id="RhYwi4Nr0WYsUU9BLPxB-54" value="&lt;font style=&quot;font-size: 16px;&quot;&gt;&amp;nbsp; &amp;nbsp;Topic&lt;/font&gt;" style="rounded=1;whiteSpace=wrap;html=1;align=left;arcSize=12;" parent="1" vertex="1">
                    <mxGeometry x="810" y="1320" width="240" height="40" as="geometry"/>
                </mxCell>
                <mxCell id="RhYwi4Nr0WYsUU9BLPxB-57" value="&lt;font style=&quot;font-size: 16px;&quot;&gt;&amp;nbsp; &amp;nbsp;Your Message&lt;br&gt;&lt;br&gt;&lt;br&gt;&lt;br&gt;&lt;/font&gt;" style="rounded=1;whiteSpace=wrap;html=1;arcSize=5;align=left;" parent="1" vertex="1">
                    <mxGeometry x="1070" y="1320" width="370" height="100" as="geometry"/>
                </mxCell>
                <mxCell id="RhYwi4Nr0WYsUU9BLPxB-59" value="&lt;font style=&quot;&quot;&gt;&lt;font style=&quot;font-size: 24px;&quot;&gt;&lt;b&gt;Andrew Forster &lt;br&gt;&lt;/b&gt;&lt;/font&gt;&lt;br&gt;&lt;span style=&quot;font-size: 16px;&quot;&gt;Software Developer&amp;nbsp; |&amp;nbsp;&amp;nbsp;&lt;/span&gt;&lt;span style=&quot;font-size: 16px;&quot;&gt;contact@andrewjf.com&lt;br&gt;&lt;/span&gt;&lt;br&gt;© 2023 All Rights Reserved.&lt;br&gt;&lt;/font&gt;" style="text;html=1;strokeColor=none;fillColor=none;align=left;verticalAlign=middle;whiteSpace=wrap;rounded=0;" parent="1" vertex="1">
                    <mxGeometry x="810" y="1480" width="340" height="110" as="geometry"/>
                </mxCell>
                <mxCell id="RhYwi4Nr0WYsUU9BLPxB-60" value="" style="rounded=0;whiteSpace=wrap;html=1;strokeColor=none;movable=1;resizable=1;rotatable=1;deletable=1;editable=1;locked=0;connectable=1;" parent="1" vertex="1">
                    <mxGeometry x="1600" y="76.5" width="960" height="933.5" as="geometry"/>
                </mxCell>
                <mxCell id="RhYwi4Nr0WYsUU9BLPxB-61" value="" style="rounded=0;whiteSpace=wrap;html=1;" parent="1" vertex="1">
                    <mxGeometry x="1600" y="76.5" width="260" height="933.5" as="geometry"/>
                </mxCell>
                <mxCell id="RhYwi4Nr0WYsUU9BLPxB-62" value="" style="ellipse;whiteSpace=wrap;html=1;aspect=fixed;" parent="1" vertex="1">
                    <mxGeometry x="1696.25" y="126.5" width="60" height="60" as="geometry"/>
                </mxCell>
                <mxCell id="RhYwi4Nr0WYsUU9BLPxB-63" value="&lt;font size=&quot;1&quot; style=&quot;&quot;&gt;&lt;b style=&quot;font-size: 24px;&quot;&gt;Andrew Forster&lt;/b&gt;&lt;/font&gt;" style="text;html=1;strokeColor=none;fillColor=none;align=center;verticalAlign=middle;whiteSpace=wrap;rounded=0;" parent="1" vertex="1">
                    <mxGeometry x="1632.5" y="201.5" width="201.25" height="30" as="geometry"/>
                </mxCell>
                <mxCell id="RhYwi4Nr0WYsUU9BLPxB-64" value="&lt;font style=&quot;font-size: 16px;&quot;&gt;Home&lt;/font&gt;" style="rounded=0;whiteSpace=wrap;html=1;strokeColor=none;align=left;" parent="1" vertex="1">
                    <mxGeometry x="1640" y="246.5" width="77.5" height="50" as="geometry"/>
                </mxCell>
                <mxCell id="RhYwi4Nr0WYsUU9BLPxB-65" value="&lt;font style=&quot;font-size: 16px;&quot;&gt;About&lt;/font&gt;" style="rounded=0;whiteSpace=wrap;html=1;strokeColor=none;align=left;" parent="1" vertex="1">
                    <mxGeometry x="1640" y="296.5" width="77.5" height="50" as="geometry"/>
                </mxCell>
                <mxCell id="RhYwi4Nr0WYsUU9BLPxB-66" value="&lt;font style=&quot;font-size: 16px;&quot;&gt;Skills&lt;/font&gt;" style="rounded=0;whiteSpace=wrap;html=1;strokeColor=none;align=left;" parent="1" vertex="1">
                    <mxGeometry x="1640" y="346.5" width="77.5" height="50" as="geometry"/>
                </mxCell>
                <mxCell id="RhYwi4Nr0WYsUU9BLPxB-67" value="&lt;font style=&quot;font-size: 16px;&quot;&gt;Portfolio&lt;/font&gt;" style="rounded=0;whiteSpace=wrap;html=1;strokeColor=none;align=left;" parent="1" vertex="1">
                    <mxGeometry x="1640" y="396.5" width="77.5" height="50" as="geometry"/>
                </mxCell>
                <mxCell id="RhYwi4Nr0WYsUU9BLPxB-68" value="&lt;font style=&quot;font-size: 16px;&quot;&gt;Contact&lt;/font&gt;" style="rounded=0;whiteSpace=wrap;html=1;strokeColor=none;align=left;" parent="1" vertex="1">
                    <mxGeometry x="1640" y="446.5" width="77.5" height="50" as="geometry"/>
                </mxCell>
                <mxCell id="RhYwi4Nr0WYsUU9BLPxB-69" value="&lt;font style=&quot;font-size: 32px;&quot;&gt;&lt;b&gt;Aspiring Software Developer&lt;/b&gt;&lt;/font&gt;" style="text;html=1;strokeColor=none;fillColor=none;align=center;verticalAlign=middle;whiteSpace=wrap;rounded=0;" parent="1" vertex="1">
                    <mxGeometry x="1890" y="270" width="450" height="80" as="geometry"/>
                </mxCell>
                <mxCell id="RhYwi4Nr0WYsUU9BLPxB-78" value="&lt;font size=&quot;1&quot; style=&quot;&quot;&gt;&lt;b style=&quot;font-size: 24px;&quot;&gt;Lets Get in Contact&lt;/b&gt;&lt;/font&gt;" style="text;html=1;strokeColor=none;fillColor=none;align=center;verticalAlign=middle;whiteSpace=wrap;rounded=0;" parent="1" vertex="1">
                    <mxGeometry x="1880" y="670" width="250" height="30" as="geometry"/>
                </mxCell>
                <mxCell id="RhYwi4Nr0WYsUU9BLPxB-79" value="&lt;font face=&quot;Helvetica&quot;&gt;&lt;span style=&quot;font-size: 20px;&quot;&gt;Send Message&lt;/span&gt;&lt;/font&gt;" style="rounded=1;whiteSpace=wrap;html=1;arcSize=8;fontFamily=Teko;fontSource=https%3A%2F%2Ffonts.googleapis.com%2Fcss%3Ffamily%3DTeko;fontSize=32;align=center;fillColor=#6666FF;strokeColor=none;" parent="1" vertex="1">
                    <mxGeometry x="1890" y="778.5" width="240" height="43" as="geometry"/>
                </mxCell>
                <mxCell id="RhYwi4Nr0WYsUU9BLPxB-80" value="&lt;font style=&quot;font-size: 16px;&quot;&gt;&amp;nbsp; &amp;nbsp;Topic&lt;/font&gt;" style="rounded=1;whiteSpace=wrap;html=1;align=left;arcSize=12;" parent="1" vertex="1">
                    <mxGeometry x="1890" y="720" width="240" height="40" as="geometry"/>
                </mxCell>
                <mxCell id="RhYwi4Nr0WYsUU9BLPxB-81" value="&lt;font style=&quot;font-size: 16px;&quot;&gt;&amp;nbsp; &amp;nbsp;Your Message&lt;br&gt;&lt;br&gt;&lt;br&gt;&lt;br&gt;&lt;/font&gt;" style="rounded=1;whiteSpace=wrap;html=1;arcSize=5;align=left;" parent="1" vertex="1">
                    <mxGeometry x="2150" y="720" width="370" height="100" as="geometry"/>
                </mxCell>
                <mxCell id="RhYwi4Nr0WYsUU9BLPxB-82" value="&lt;font style=&quot;&quot;&gt;&lt;font style=&quot;font-size: 24px;&quot;&gt;&lt;b&gt;Andrew Forster &lt;br&gt;&lt;/b&gt;&lt;/font&gt;&lt;br&gt;&lt;span style=&quot;font-size: 16px;&quot;&gt;Software Developer&amp;nbsp; |&amp;nbsp;&amp;nbsp;&lt;/span&gt;&lt;span style=&quot;font-size: 16px;&quot;&gt;contact@andrewjf.com&lt;br&gt;&lt;/span&gt;&lt;br&gt;© 2023 All Rights Reserved.&lt;br&gt;&lt;/font&gt;" style="text;html=1;strokeColor=none;fillColor=none;align=left;verticalAlign=middle;whiteSpace=wrap;rounded=0;" parent="1" vertex="1">
                    <mxGeometry x="1890" y="880" width="340" height="110" as="geometry"/>
                </mxCell>
                <mxCell id="RhYwi4Nr0WYsUU9BLPxB-83" value="" style="rounded=1;whiteSpace=wrap;html=1;arcSize=6;" parent="1" vertex="1">
                    <mxGeometry x="1890" y="90" width="640" height="180" as="geometry"/>
                </mxCell>
                <mxCell id="RhYwi4Nr0WYsUU9BLPxB-85" value="&lt;p style=&quot;border: 0px solid rgb(227, 227, 227); box-sizing: border-box; --tw-border-spacing-x: 0; --tw-border-spacing-y: 0; --tw-translate-x: 0; --tw-translate-y: 0; --tw-rotate: 0; --tw-skew-x: 0; --tw-skew-y: 0; --tw-scale-x: 1; --tw-scale-y: 1; --tw-pan-x: ; --tw-pan-y: ; --tw-pinch-zoom: ; --tw-scroll-snap-strictness: proximity; --tw-gradient-from-position: ; --tw-gradient-via-position: ; --tw-gradient-to-position: ; --tw-ordinal: ; --tw-slashed-zero: ; --tw-numeric-figure: ; --tw-numeric-spacing: ; --tw-numeric-fraction: ; --tw-ring-inset: ; --tw-ring-offset-width: 0px; --tw-ring-offset-color: #fff; --tw-ring-color: rgba(69,89,164,.5); --tw-ring-offset-shadow: 0 0 transparent; --tw-ring-shadow: 0 0 transparent; --tw-shadow: 0 0 transparent; --tw-shadow-colored: 0 0 transparent; --tw-blur: ; --tw-brightness: ; --tw-contrast: ; --tw-grayscale: ; --tw-hue-rotate: ; --tw-invert: ; --tw-saturate: ; --tw-sepia: ; --tw-drop-shadow: ; --tw-backdrop-blur: ; --tw-backdrop-brightness: ; --tw-backdrop-contrast: ; --tw-backdrop-grayscale: ; --tw-backdrop-hue-rotate: ; --tw-backdrop-invert: ; --tw-backdrop-opacity: ; --tw-backdrop-saturate: ; --tw-backdrop-sepia: ; --tw-contain-size: ; --tw-contain-layout: ; --tw-contain-paint: ; --tw-contain-style: ; margin: 0px 0px 1.25em; color: rgb(236, 236, 236); font-size: 18px;&quot;&gt;&lt;font face=&quot;Helvetica&quot;&gt;Entering my second year at Grand Canyon University, I maintain a strong GPA of 3.75 while minoring in Cybersecurity. With a successful freelance project under my belt, collaborating seamlessly within a team environment, I am dedicated to consistently delivering results. Possessing a keen aptitude for problem-solving and critical thinking, I am poised to make impactful strides in the industry.&lt;/font&gt;&lt;br&gt;&lt;/p&gt;" style="rounded=0;whiteSpace=wrap;html=1;strokeColor=none;align=left;verticalAlign=bottom;" parent="1" vertex="1">
                    <mxGeometry x="1890" y="340.75" width="600" height="168.5" as="geometry"/>
                </mxCell>
                <mxCell id="RhYwi4Nr0WYsUU9BLPxB-86" value="&lt;div style=&quot;&quot;&gt;&lt;b style=&quot;background-color: initial;&quot;&gt;&lt;font style=&quot;font-size: 20px;&quot;&gt;&amp;nbsp; My Portfolio&lt;/font&gt;&lt;/b&gt;&lt;/div&gt;" style="rounded=1;whiteSpace=wrap;html=1;arcSize=9;align=left;" parent="1" vertex="1">
                    <mxGeometry x="1890" y="518" width="240" height="65" as="geometry"/>
                </mxCell>
                <mxCell id="RhYwi4Nr0WYsUU9BLPxB-87" value="" style="shape=image;verticalLabelPosition=bottom;labelBackgroundColor=default;verticalAlign=top;aspect=fixed;imageAspect=0;image=data:image/svg+xml,%3Csvg%20%20xmlns=%22http://www.w3.org/2000/svg%22%20%20width=%2224%22%20%20height=%2224%22%20%20viewBox=%220%200%2024%2024%22%20%20fill=%22none%22%20%20stroke=%22white%22%20%20stroke-width=%222%22%20%20stroke-linecap=%22round%22%20%20stroke-linejoin=%22round%22%20%20class=%22icon%20icon-tabler%20icons-tabler-outline%20icon-tabler-share-2%22%3E%3Cpath%20stroke=%22none%22%20d=%22M0%200h24v24H0z%22%20fill=%22none%22/%3E%3Cpath%20d=%22M8%209h-1a2%202%200%200%200%20-2%202v8a2%202%200%200%200%202%202h10a2%202%200%200%200%202%20-2v-8a2%202%200%200%200%20-2%20-2h-1%22%20/%3E%3Cpath%20d=%22M12%2014v-11%22%20/%3E%3Cpath%20d=%22M9%206l3%20-3l3%203%22%20/%3E%3C/svg%3E;imageBackground=none;rotation=90;" parent="1" vertex="1">
                    <mxGeometry x="2080" y="530.5" width="40" height="40" as="geometry"/>
                </mxCell>
                <mxCell id="RhYwi4Nr0WYsUU9BLPxB-88" value="&lt;div style=&quot;&quot;&gt;&lt;b style=&quot;background-color: initial;&quot;&gt;&lt;font style=&quot;font-size: 20px;&quot;&gt;&amp;nbsp; My Skills&lt;/font&gt;&lt;/b&gt;&lt;/div&gt;" style="rounded=1;whiteSpace=wrap;html=1;arcSize=9;align=left;" parent="1" vertex="1">
                    <mxGeometry x="2160" y="518" width="240" height="65" as="geometry"/>
                </mxCell>
                <mxCell id="RhYwi4Nr0WYsUU9BLPxB-89" value="" style="shape=image;verticalLabelPosition=bottom;labelBackgroundColor=default;verticalAlign=top;aspect=fixed;imageAspect=0;image=data:image/svg+xml,%3Csvg%20%20xmlns=%22http://www.w3.org/2000/svg%22%20%20width=%2224%22%20%20height=%2224%22%20%20viewBox=%220%200%2024%2024%22%20%20fill=%22none%22%20%20stroke=%22white%22%20%20stroke-width=%222%22%20%20stroke-linecap=%22round%22%20%20stroke-linejoin=%22round%22%20%20class=%22icon%20icon-tabler%20icons-tabler-outline%20icon-tabler-share-2%22%3E%3Cpath%20stroke=%22none%22%20d=%22M0%200h24v24H0z%22%20fill=%22none%22/%3E%3Cpath%20d=%22M8%209h-1a2%202%200%200%200%20-2%202v8a2%202%200%200%200%202%202h10a2%202%200%200%200%202%20-2v-8a2%202%200%200%200%20-2%20-2h-1%22%20/%3E%3Cpath%20d=%22M12%2014v-11%22%20/%3E%3Cpath%20d=%22M9%206l3%20-3l3%203%22%20/%3E%3C/svg%3E;imageBackground=none;rotation=90;" parent="1" vertex="1">
                    <mxGeometry x="2350" y="530.5" width="40" height="40" as="geometry"/>
                </mxCell>
                <mxCell id="RhYwi4Nr0WYsUU9BLPxB-90" value="" style="rounded=0;whiteSpace=wrap;html=1;strokeColor=none;movable=1;resizable=1;rotatable=1;deletable=1;editable=1;locked=0;connectable=1;" parent="1" vertex="1">
                    <mxGeometry x="2680" y="66.5" width="960" height="833.5" as="geometry"/>
                </mxCell>
                <mxCell id="RhYwi4Nr0WYsUU9BLPxB-91" value="" style="rounded=0;whiteSpace=wrap;html=1;" parent="1" vertex="1">
                    <mxGeometry x="2680" y="66.5" width="260" height="833.5" as="geometry"/>
                </mxCell>
                <mxCell id="RhYwi4Nr0WYsUU9BLPxB-92" value="" style="ellipse;whiteSpace=wrap;html=1;aspect=fixed;" parent="1" vertex="1">
                    <mxGeometry x="2776.25" y="116.5" width="60" height="60" as="geometry"/>
                </mxCell>
                <mxCell id="RhYwi4Nr0WYsUU9BLPxB-93" value="&lt;font size=&quot;1&quot; style=&quot;&quot;&gt;&lt;b style=&quot;font-size: 24px;&quot;&gt;Andrew Forster&lt;/b&gt;&lt;/font&gt;" style="text;html=1;strokeColor=none;fillColor=none;align=center;verticalAlign=middle;whiteSpace=wrap;rounded=0;" parent="1" vertex="1">
                    <mxGeometry x="2712.5" y="191.5" width="201.25" height="30" as="geometry"/>
                </mxCell>
                <mxCell id="RhYwi4Nr0WYsUU9BLPxB-94" value="&lt;font style=&quot;font-size: 16px;&quot;&gt;Home&lt;/font&gt;" style="rounded=0;whiteSpace=wrap;html=1;strokeColor=none;align=left;" parent="1" vertex="1">
                    <mxGeometry x="2720" y="236.5" width="77.5" height="50" as="geometry"/>
                </mxCell>
                <mxCell id="RhYwi4Nr0WYsUU9BLPxB-95" value="&lt;font style=&quot;font-size: 16px;&quot;&gt;About&lt;/font&gt;" style="rounded=0;whiteSpace=wrap;html=1;strokeColor=none;align=left;" parent="1" vertex="1">
                    <mxGeometry x="2720" y="286.5" width="77.5" height="50" as="geometry"/>
                </mxCell>
                <mxCell id="RhYwi4Nr0WYsUU9BLPxB-96" value="&lt;font style=&quot;font-size: 16px;&quot;&gt;Skills&lt;/font&gt;" style="rounded=0;whiteSpace=wrap;html=1;strokeColor=none;align=left;" parent="1" vertex="1">
                    <mxGeometry x="2720" y="336.5" width="77.5" height="50" as="geometry"/>
                </mxCell>
                <mxCell id="RhYwi4Nr0WYsUU9BLPxB-97" value="&lt;font style=&quot;font-size: 16px;&quot;&gt;Portfolio&lt;/font&gt;" style="rounded=0;whiteSpace=wrap;html=1;strokeColor=none;align=left;" parent="1" vertex="1">
                    <mxGeometry x="2720" y="386.5" width="77.5" height="50" as="geometry"/>
                </mxCell>
                <mxCell id="RhYwi4Nr0WYsUU9BLPxB-98" value="&lt;font style=&quot;font-size: 16px;&quot;&gt;Contact&lt;/font&gt;" style="rounded=0;whiteSpace=wrap;html=1;strokeColor=none;align=left;" parent="1" vertex="1">
                    <mxGeometry x="2720" y="436.5" width="77.5" height="50" as="geometry"/>
                </mxCell>
                <mxCell id="RhYwi4Nr0WYsUU9BLPxB-99" value="&lt;font style=&quot;font-size: 32px;&quot;&gt;&lt;b&gt;My Skills&lt;/b&gt;&lt;/font&gt;" style="text;html=1;strokeColor=none;fillColor=none;align=center;verticalAlign=middle;whiteSpace=wrap;rounded=0;" parent="1" vertex="1">
                    <mxGeometry x="2940" y="66.5" width="170" height="80" as="geometry"/>
                </mxCell>
                <mxCell id="RhYwi4Nr0WYsUU9BLPxB-100" value="&lt;font size=&quot;1&quot; style=&quot;&quot;&gt;&lt;b style=&quot;font-size: 24px;&quot;&gt;Lets Get in Contact&lt;/b&gt;&lt;/font&gt;" style="text;html=1;strokeColor=none;fillColor=none;align=center;verticalAlign=middle;whiteSpace=wrap;rounded=0;" parent="1" vertex="1">
                    <mxGeometry x="2970" y="550" width="250" height="30" as="geometry"/>
                </mxCell>
                <mxCell id="RhYwi4Nr0WYsUU9BLPxB-101" value="&lt;font face=&quot;Helvetica&quot;&gt;&lt;span style=&quot;font-size: 20px;&quot;&gt;Send Message&lt;/span&gt;&lt;/font&gt;" style="rounded=1;whiteSpace=wrap;html=1;arcSize=8;fontFamily=Teko;fontSource=https%3A%2F%2Ffonts.googleapis.com%2Fcss%3Ffamily%3DTeko;fontSize=32;align=center;fillColor=#6666FF;strokeColor=none;" parent="1" vertex="1">
                    <mxGeometry x="2980" y="658.5" width="240" height="43" as="geometry"/>
                </mxCell>
                <mxCell id="RhYwi4Nr0WYsUU9BLPxB-102" value="&lt;font style=&quot;font-size: 16px;&quot;&gt;&amp;nbsp; &amp;nbsp;Topic&lt;/font&gt;" style="rounded=1;whiteSpace=wrap;html=1;align=left;arcSize=12;" parent="1" vertex="1">
                    <mxGeometry x="2980" y="600" width="240" height="40" as="geometry"/>
                </mxCell>
                <mxCell id="RhYwi4Nr0WYsUU9BLPxB-103" value="&lt;font style=&quot;font-size: 16px;&quot;&gt;&amp;nbsp; &amp;nbsp;Your Message&lt;br&gt;&lt;br&gt;&lt;br&gt;&lt;br&gt;&lt;/font&gt;" style="rounded=1;whiteSpace=wrap;html=1;arcSize=5;align=left;" parent="1" vertex="1">
                    <mxGeometry x="3240" y="600" width="370" height="100" as="geometry"/>
                </mxCell>
                <mxCell id="RhYwi4Nr0WYsUU9BLPxB-111" value="" style="rounded=1;whiteSpace=wrap;html=1;fillColor=#6666FF;strokeColor=none;" parent="1" vertex="1">
                    <mxGeometry x="2970" y="156.5" width="260" height="53.5" as="geometry"/>
                </mxCell>
                <mxCell id="RhYwi4Nr0WYsUU9BLPxB-104" value="&lt;font style=&quot;&quot;&gt;&lt;font style=&quot;font-size: 24px;&quot;&gt;&lt;b&gt;Andrew Forster &lt;br&gt;&lt;/b&gt;&lt;/font&gt;&lt;br&gt;&lt;span style=&quot;font-size: 16px;&quot;&gt;Software Developer&amp;nbsp; |&amp;nbsp;&amp;nbsp;&lt;/span&gt;&lt;span style=&quot;font-size: 16px;&quot;&gt;contact@andrewjf.com&lt;br&gt;&lt;/span&gt;&lt;br&gt;© 2023 All Rights Reserved.&lt;br&gt;&lt;/font&gt;" style="text;html=1;strokeColor=none;fillColor=none;align=left;verticalAlign=middle;whiteSpace=wrap;rounded=0;" parent="1" vertex="1">
                    <mxGeometry x="2980" y="760" width="340" height="110" as="geometry"/>
                </mxCell>
                <mxCell id="RhYwi4Nr0WYsUU9BLPxB-105" value="&lt;font style=&quot;font-size: 20px;&quot;&gt;&amp;nbsp; &amp;nbsp;HTML &amp;amp; CSS&lt;/font&gt;" style="rounded=1;whiteSpace=wrap;html=1;arcSize=6;align=left;fillColor=none;" parent="1" vertex="1">
                    <mxGeometry x="2970" y="156.5" width="280" height="53.5" as="geometry"/>
                </mxCell>
                <mxCell id="RhYwi4Nr0WYsUU9BLPxB-107" value="&lt;div style=&quot;&quot;&gt;&lt;b style=&quot;background-color: initial;&quot;&gt;&lt;font style=&quot;font-size: 20px;&quot;&gt;&amp;nbsp; My Portfolio&lt;/font&gt;&lt;/b&gt;&lt;/div&gt;" style="rounded=1;whiteSpace=wrap;html=1;arcSize=9;align=left;" parent="1" vertex="1">
                    <mxGeometry x="2970" y="431.5" width="280" height="65" as="geometry"/>
                </mxCell>
                <mxCell id="RhYwi4Nr0WYsUU9BLPxB-108" value="" style="shape=image;verticalLabelPosition=bottom;labelBackgroundColor=default;verticalAlign=top;aspect=fixed;imageAspect=0;image=data:image/svg+xml,%3Csvg%20%20xmlns=%22http://www.w3.org/2000/svg%22%20%20width=%2224%22%20%20height=%2224%22%20%20viewBox=%220%200%2024%2024%22%20%20fill=%22none%22%20%20stroke=%22white%22%20%20stroke-width=%222%22%20%20stroke-linecap=%22round%22%20%20stroke-linejoin=%22round%22%20%20class=%22icon%20icon-tabler%20icons-tabler-outline%20icon-tabler-share-2%22%3E%3Cpath%20stroke=%22none%22%20d=%22M0%200h24v24H0z%22%20fill=%22none%22/%3E%3Cpath%20d=%22M8%209h-1a2%202%200%200%200%20-2%202v8a2%202%200%200%200%202%202h10a2%202%200%200%200%202%20-2v-8a2%202%200%200%200%20-2%20-2h-1%22%20/%3E%3Cpath%20d=%22M12%2014v-11%22%20/%3E%3Cpath%20d=%22M9%206l3%20-3l3%203%22%20/%3E%3C/svg%3E;imageBackground=none;rotation=90;" parent="1" vertex="1">
                    <mxGeometry x="3200" y="441.5" width="40" height="40" as="geometry"/>
                </mxCell>
                <mxCell id="RhYwi4Nr0WYsUU9BLPxB-109" value="&lt;div style=&quot;&quot;&gt;&lt;b style=&quot;background-color: initial;&quot;&gt;&lt;font style=&quot;font-size: 20px;&quot;&gt;&amp;nbsp; About me&lt;/font&gt;&lt;/b&gt;&lt;/div&gt;" style="rounded=1;whiteSpace=wrap;html=1;arcSize=9;align=left;" parent="1" vertex="1">
                    <mxGeometry x="3280" y="431.5" width="280" height="65" as="geometry"/>
                </mxCell>
                <mxCell id="RhYwi4Nr0WYsUU9BLPxB-110" value="" style="shape=image;verticalLabelPosition=bottom;labelBackgroundColor=default;verticalAlign=top;aspect=fixed;imageAspect=0;image=data:image/svg+xml,%3Csvg%20%20xmlns=%22http://www.w3.org/2000/svg%22%20%20width=%2224%22%20%20height=%2224%22%20%20viewBox=%220%200%2024%2024%22%20%20fill=%22none%22%20%20stroke=%22white%22%20%20stroke-width=%222%22%20%20stroke-linecap=%22round%22%20%20stroke-linejoin=%22round%22%20%20class=%22icon%20icon-tabler%20icons-tabler-outline%20icon-tabler-share-2%22%3E%3Cpath%20stroke=%22none%22%20d=%22M0%200h24v24H0z%22%20fill=%22none%22/%3E%3Cpath%20d=%22M8%209h-1a2%202%200%200%200%20-2%202v8a2%202%200%200%200%202%202h10a2%202%200%200%200%202%20-2v-8a2%202%200%200%200%20-2%20-2h-1%22%20/%3E%3Cpath%20d=%22M12%2014v-11%22%20/%3E%3Cpath%20d=%22M9%206l3%20-3l3%203%22%20/%3E%3C/svg%3E;imageBackground=none;rotation=90;" parent="1" vertex="1">
                    <mxGeometry x="3510" y="444" width="40" height="40" as="geometry"/>
                </mxCell>
                <mxCell id="RhYwi4Nr0WYsUU9BLPxB-120" value="" style="rounded=1;whiteSpace=wrap;html=1;fillColor=#6666FF;strokeColor=none;" parent="1" vertex="1">
                    <mxGeometry x="3280" y="156.5" width="230" height="53.5" as="geometry"/>
                </mxCell>
                <mxCell id="RhYwi4Nr0WYsUU9BLPxB-121" value="&lt;font style=&quot;font-size: 20px;&quot;&gt;&amp;nbsp; &amp;nbsp;JavaScript&lt;/font&gt;" style="rounded=1;whiteSpace=wrap;html=1;arcSize=6;align=left;fillColor=none;" parent="1" vertex="1">
                    <mxGeometry x="3280" y="156.5" width="280" height="53.5" as="geometry"/>
                </mxCell>
                <mxCell id="RhYwi4Nr0WYsUU9BLPxB-122" value="" style="rounded=1;whiteSpace=wrap;html=1;fillColor=#6666FF;strokeColor=none;" parent="1" vertex="1">
                    <mxGeometry x="2970" y="243" width="210" height="53.5" as="geometry"/>
                </mxCell>
                <mxCell id="RhYwi4Nr0WYsUU9BLPxB-123" value="&lt;font style=&quot;font-size: 20px;&quot;&gt;&amp;nbsp; &amp;nbsp;Java&lt;/font&gt;" style="rounded=1;whiteSpace=wrap;html=1;arcSize=6;align=left;fillColor=none;" parent="1" vertex="1">
                    <mxGeometry x="2970" y="243" width="280" height="53.5" as="geometry"/>
                </mxCell>
                <mxCell id="RhYwi4Nr0WYsUU9BLPxB-124" value="" style="rounded=1;whiteSpace=wrap;html=1;fillColor=#6666FF;strokeColor=none;" parent="1" vertex="1">
                    <mxGeometry x="3280" y="243" width="170" height="53.5" as="geometry"/>
                </mxCell>
                <mxCell id="RhYwi4Nr0WYsUU9BLPxB-125" value="&lt;font style=&quot;font-size: 20px;&quot;&gt;&amp;nbsp; &amp;nbsp;C#&lt;/font&gt;" style="rounded=1;whiteSpace=wrap;html=1;arcSize=6;align=left;fillColor=none;" parent="1" vertex="1">
                    <mxGeometry x="3280" y="243" width="280" height="53.5" as="geometry"/>
                </mxCell>
                <mxCell id="RhYwi4Nr0WYsUU9BLPxB-127" value="" style="rounded=1;whiteSpace=wrap;html=1;fillColor=#6666FF;strokeColor=none;" parent="1" vertex="1">
                    <mxGeometry x="2970" y="330" width="125" height="53.5" as="geometry"/>
                </mxCell>
                <mxCell id="RhYwi4Nr0WYsUU9BLPxB-128" value="&lt;font style=&quot;font-size: 20px;&quot;&gt;&amp;nbsp; &amp;nbsp;ExpressJS&lt;/font&gt;" style="rounded=1;whiteSpace=wrap;html=1;arcSize=6;align=left;fillColor=none;" parent="1" vertex="1">
                    <mxGeometry x="2970" y="330" width="280" height="53.5" as="geometry"/>
                </mxCell>
                <mxCell id="RhYwi4Nr0WYsUU9BLPxB-129" value="" style="rounded=1;whiteSpace=wrap;html=1;fillColor=#6666FF;strokeColor=none;" parent="1" vertex="1">
                    <mxGeometry x="3280" y="330" width="110" height="53.5" as="geometry"/>
                </mxCell>
                <mxCell id="RhYwi4Nr0WYsUU9BLPxB-130" value="&lt;span style=&quot;font-size: 20px;&quot;&gt;&amp;nbsp; &amp;nbsp;React&lt;/span&gt;" style="rounded=1;whiteSpace=wrap;html=1;arcSize=6;align=left;fillColor=none;" parent="1" vertex="1">
                    <mxGeometry x="3280" y="330" width="280" height="53.5" as="geometry"/>
                </mxCell>
                <mxCell id="RhYwi4Nr0WYsUU9BLPxB-131" value="" style="rounded=0;whiteSpace=wrap;html=1;strokeColor=none;movable=1;resizable=1;rotatable=1;deletable=1;editable=1;locked=0;connectable=1;" parent="1" vertex="1">
                    <mxGeometry x="3760" y="76.5" width="960" height="953.5" as="geometry"/>
                </mxCell>
                <mxCell id="RhYwi4Nr0WYsUU9BLPxB-132" value="" style="rounded=0;whiteSpace=wrap;html=1;" parent="1" vertex="1">
                    <mxGeometry x="3760" y="76.5" width="260" height="943.5" as="geometry"/>
                </mxCell>
                <mxCell id="RhYwi4Nr0WYsUU9BLPxB-133" value="" style="ellipse;whiteSpace=wrap;html=1;aspect=fixed;" parent="1" vertex="1">
                    <mxGeometry x="3856.25" y="126.5" width="60" height="60" as="geometry"/>
                </mxCell>
                <mxCell id="RhYwi4Nr0WYsUU9BLPxB-134" value="&lt;font size=&quot;1&quot; style=&quot;&quot;&gt;&lt;b style=&quot;font-size: 24px;&quot;&gt;Andrew Forster&lt;/b&gt;&lt;/font&gt;" style="text;html=1;strokeColor=none;fillColor=none;align=center;verticalAlign=middle;whiteSpace=wrap;rounded=0;" parent="1" vertex="1">
                    <mxGeometry x="3792.5" y="201.5" width="201.25" height="30" as="geometry"/>
                </mxCell>
                <mxCell id="RhYwi4Nr0WYsUU9BLPxB-135" value="&lt;font style=&quot;font-size: 16px;&quot;&gt;Home&lt;/font&gt;" style="rounded=0;whiteSpace=wrap;html=1;strokeColor=none;align=left;" parent="1" vertex="1">
                    <mxGeometry x="3800" y="246.5" width="77.5" height="50" as="geometry"/>
                </mxCell>
                <mxCell id="RhYwi4Nr0WYsUU9BLPxB-136" value="&lt;font style=&quot;font-size: 16px;&quot;&gt;About&lt;/font&gt;" style="rounded=0;whiteSpace=wrap;html=1;strokeColor=none;align=left;" parent="1" vertex="1">
                    <mxGeometry x="3800" y="296.5" width="77.5" height="50" as="geometry"/>
                </mxCell>
                <mxCell id="RhYwi4Nr0WYsUU9BLPxB-137" value="&lt;font style=&quot;font-size: 16px;&quot;&gt;Skills&lt;/font&gt;" style="rounded=0;whiteSpace=wrap;html=1;strokeColor=none;align=left;" parent="1" vertex="1">
                    <mxGeometry x="3800" y="346.5" width="77.5" height="50" as="geometry"/>
                </mxCell>
                <mxCell id="RhYwi4Nr0WYsUU9BLPxB-138" value="&lt;font style=&quot;font-size: 16px;&quot;&gt;Portfolio&lt;/font&gt;" style="rounded=0;whiteSpace=wrap;html=1;strokeColor=none;align=left;" parent="1" vertex="1">
                    <mxGeometry x="3800" y="396.5" width="77.5" height="50" as="geometry"/>
                </mxCell>
                <mxCell id="RhYwi4Nr0WYsUU9BLPxB-139" value="&lt;font style=&quot;font-size: 16px;&quot;&gt;Contact&lt;/font&gt;" style="rounded=0;whiteSpace=wrap;html=1;strokeColor=none;align=left;" parent="1" vertex="1">
                    <mxGeometry x="3800" y="446.5" width="77.5" height="50" as="geometry"/>
                </mxCell>
                <mxCell id="RhYwi4Nr0WYsUU9BLPxB-140" value="&lt;font style=&quot;font-size: 32px;&quot;&gt;&lt;b&gt;My Portfolio&lt;/b&gt;&lt;/font&gt;" style="text;html=1;strokeColor=none;fillColor=none;align=center;verticalAlign=middle;whiteSpace=wrap;rounded=0;" parent="1" vertex="1">
                    <mxGeometry x="4020" y="76.5" width="230" height="80" as="geometry"/>
                </mxCell>
                <mxCell id="RhYwi4Nr0WYsUU9BLPxB-141" value="&lt;font size=&quot;1&quot; style=&quot;&quot;&gt;&lt;b style=&quot;font-size: 24px;&quot;&gt;Lets Get in Contact&lt;/b&gt;&lt;/font&gt;" style="text;html=1;strokeColor=none;fillColor=none;align=center;verticalAlign=middle;whiteSpace=wrap;rounded=0;" parent="1" vertex="1">
                    <mxGeometry x="4040" y="680" width="250" height="30" as="geometry"/>
                </mxCell>
                <mxCell id="RhYwi4Nr0WYsUU9BLPxB-142" value="&lt;font face=&quot;Helvetica&quot;&gt;&lt;span style=&quot;font-size: 20px;&quot;&gt;Send Message&lt;/span&gt;&lt;/font&gt;" style="rounded=1;whiteSpace=wrap;html=1;arcSize=8;fontFamily=Teko;fontSource=https%3A%2F%2Ffonts.googleapis.com%2Fcss%3Ffamily%3DTeko;fontSize=32;align=center;fillColor=#6666FF;strokeColor=none;" parent="1" vertex="1">
                    <mxGeometry x="4050" y="788.5" width="240" height="43" as="geometry"/>
                </mxCell>
                <mxCell id="RhYwi4Nr0WYsUU9BLPxB-143" value="&lt;font style=&quot;font-size: 16px;&quot;&gt;&amp;nbsp; &amp;nbsp;Topic&lt;/font&gt;" style="rounded=1;whiteSpace=wrap;html=1;align=left;arcSize=12;" parent="1" vertex="1">
                    <mxGeometry x="4050" y="730" width="240" height="40" as="geometry"/>
                </mxCell>
                <mxCell id="RhYwi4Nr0WYsUU9BLPxB-144" value="&lt;font style=&quot;font-size: 16px;&quot;&gt;&amp;nbsp; &amp;nbsp;Your Message&lt;br&gt;&lt;br&gt;&lt;br&gt;&lt;br&gt;&lt;/font&gt;" style="rounded=1;whiteSpace=wrap;html=1;arcSize=5;align=left;" parent="1" vertex="1">
                    <mxGeometry x="4310" y="730" width="370" height="100" as="geometry"/>
                </mxCell>
                <mxCell id="RhYwi4Nr0WYsUU9BLPxB-146" value="&lt;font style=&quot;&quot;&gt;&lt;font style=&quot;font-size: 24px;&quot;&gt;&lt;b&gt;Andrew Forster &lt;br&gt;&lt;/b&gt;&lt;/font&gt;&lt;br&gt;&lt;span style=&quot;font-size: 16px;&quot;&gt;Software Developer&amp;nbsp; |&amp;nbsp;&amp;nbsp;&lt;/span&gt;&lt;span style=&quot;font-size: 16px;&quot;&gt;contact@andrewjf.com&lt;br&gt;&lt;/span&gt;&lt;br&gt;© 2023 All Rights Reserved.&lt;br&gt;&lt;/font&gt;" style="text;html=1;strokeColor=none;fillColor=none;align=left;verticalAlign=middle;whiteSpace=wrap;rounded=0;" parent="1" vertex="1">
                    <mxGeometry x="4050" y="890" width="340" height="110" as="geometry"/>
                </mxCell>
                <mxCell id="RhYwi4Nr0WYsUU9BLPxB-162" value="" style="rounded=1;whiteSpace=wrap;html=1;fillColor=#6666FF;strokeColor=none;" parent="1" vertex="1">
                    <mxGeometry x="4040" y="290" width="280" height="70" as="geometry"/>
                </mxCell>
                <mxCell id="RhYwi4Nr0WYsUU9BLPxB-163" value="&lt;span style=&quot;font-size: 20px;&quot;&gt;&lt;br&gt;&lt;br&gt;&lt;br&gt;&lt;br&gt;&lt;br&gt;&amp;nbsp; &amp;nbsp;Project Name&lt;/span&gt;" style="rounded=1;whiteSpace=wrap;html=1;arcSize=6;align=left;fillColor=none;" parent="1" vertex="1">
                    <mxGeometry x="4040" y="173" width="280" height="187" as="geometry"/>
                </mxCell>
                <mxCell id="RhYwi4Nr0WYsUU9BLPxB-164" value="" style="rounded=1;whiteSpace=wrap;html=1;fillColor=#6666FF;strokeColor=none;" parent="1" vertex="1">
                    <mxGeometry x="4355" y="287" width="280" height="70" as="geometry"/>
                </mxCell>
                <mxCell id="RhYwi4Nr0WYsUU9BLPxB-165" value="&lt;span style=&quot;font-size: 20px;&quot;&gt;&lt;br&gt;&lt;br&gt;&lt;br&gt;&lt;br&gt;&lt;br&gt;&amp;nbsp; &amp;nbsp;Project Name&lt;/span&gt;" style="rounded=1;whiteSpace=wrap;html=1;arcSize=6;align=left;fillColor=none;" parent="1" vertex="1">
                    <mxGeometry x="4355" y="170" width="280" height="187" as="geometry"/>
                </mxCell>
                <mxCell id="RhYwi4Nr0WYsUU9BLPxB-166" value="" style="rounded=1;whiteSpace=wrap;html=1;fillColor=#6666FF;strokeColor=none;" parent="1" vertex="1">
                    <mxGeometry x="4040" y="506.75" width="280" height="70" as="geometry"/>
                </mxCell>
                <mxCell id="RhYwi4Nr0WYsUU9BLPxB-167" value="&lt;span style=&quot;font-size: 20px;&quot;&gt;&lt;br&gt;&lt;br&gt;&lt;br&gt;&lt;br&gt;&lt;br&gt;&amp;nbsp; &amp;nbsp;Project Name&lt;/span&gt;" style="rounded=1;whiteSpace=wrap;html=1;arcSize=6;align=left;fillColor=none;" parent="1" vertex="1">
                    <mxGeometry x="4040" y="389.75" width="280" height="187" as="geometry"/>
                </mxCell>
                <mxCell id="RhYwi4Nr0WYsUU9BLPxB-168" value="" style="rounded=1;whiteSpace=wrap;html=1;fillColor=#6666FF;strokeColor=none;" parent="1" vertex="1">
                    <mxGeometry x="4360" y="506.75" width="280" height="70" as="geometry"/>
                </mxCell>
                <mxCell id="RhYwi4Nr0WYsUU9BLPxB-169" value="&lt;span style=&quot;font-size: 20px;&quot;&gt;&lt;br&gt;&lt;br&gt;&lt;br&gt;&lt;br&gt;&lt;br&gt;&amp;nbsp; &amp;nbsp;Project Name&lt;/span&gt;" style="rounded=1;whiteSpace=wrap;html=1;arcSize=6;align=left;fillColor=none;" parent="1" vertex="1">
                    <mxGeometry x="4360" y="389.75" width="280" height="187" as="geometry"/>
                </mxCell>
                <mxCell id="RhYwi4Nr0WYsUU9BLPxB-170" value="" style="rounded=0;whiteSpace=wrap;html=1;strokeColor=none;movable=1;resizable=1;rotatable=1;deletable=1;editable=1;locked=0;connectable=1;" parent="1" vertex="1">
                    <mxGeometry x="3760" y="1100" width="960" height="953.5" as="geometry"/>
                </mxCell>
                <mxCell id="RhYwi4Nr0WYsUU9BLPxB-171" value="" style="rounded=0;whiteSpace=wrap;html=1;" parent="1" vertex="1">
                    <mxGeometry x="3760" y="1100" width="260" height="943.5" as="geometry"/>
                </mxCell>
                <mxCell id="RhYwi4Nr0WYsUU9BLPxB-172" value="" style="ellipse;whiteSpace=wrap;html=1;aspect=fixed;" parent="1" vertex="1">
                    <mxGeometry x="3856.25" y="1150" width="60" height="60" as="geometry"/>
                </mxCell>
                <mxCell id="RhYwi4Nr0WYsUU9BLPxB-173" value="&lt;font size=&quot;1&quot; style=&quot;&quot;&gt;&lt;b style=&quot;font-size: 24px;&quot;&gt;Andrew Forster&lt;/b&gt;&lt;/font&gt;" style="text;html=1;strokeColor=none;fillColor=none;align=center;verticalAlign=middle;whiteSpace=wrap;rounded=0;" parent="1" vertex="1">
                    <mxGeometry x="3792.5" y="1225" width="201.25" height="30" as="geometry"/>
                </mxCell>
                <mxCell id="RhYwi4Nr0WYsUU9BLPxB-174" value="&lt;font style=&quot;font-size: 16px;&quot;&gt;Home&lt;/font&gt;" style="rounded=0;whiteSpace=wrap;html=1;strokeColor=none;align=left;" parent="1" vertex="1">
                    <mxGeometry x="3800" y="1270" width="77.5" height="50" as="geometry"/>
                </mxCell>
                <mxCell id="RhYwi4Nr0WYsUU9BLPxB-175" value="&lt;font style=&quot;font-size: 16px;&quot;&gt;About&lt;/font&gt;" style="rounded=0;whiteSpace=wrap;html=1;strokeColor=none;align=left;" parent="1" vertex="1">
                    <mxGeometry x="3800" y="1320" width="77.5" height="50" as="geometry"/>
                </mxCell>
                <mxCell id="RhYwi4Nr0WYsUU9BLPxB-176" value="&lt;font style=&quot;font-size: 16px;&quot;&gt;Skills&lt;/font&gt;" style="rounded=0;whiteSpace=wrap;html=1;strokeColor=none;align=left;" parent="1" vertex="1">
                    <mxGeometry x="3800" y="1370" width="77.5" height="50" as="geometry"/>
                </mxCell>
                <mxCell id="RhYwi4Nr0WYsUU9BLPxB-177" value="&lt;font style=&quot;font-size: 16px;&quot;&gt;Portfolio&lt;/font&gt;" style="rounded=0;whiteSpace=wrap;html=1;strokeColor=none;align=left;" parent="1" vertex="1">
                    <mxGeometry x="3800" y="1420" width="77.5" height="50" as="geometry"/>
                </mxCell>
                <mxCell id="RhYwi4Nr0WYsUU9BLPxB-178" value="&lt;font style=&quot;font-size: 16px;&quot;&gt;Contact&lt;/font&gt;" style="rounded=0;whiteSpace=wrap;html=1;strokeColor=none;align=left;" parent="1" vertex="1">
                    <mxGeometry x="3800" y="1470" width="77.5" height="50" as="geometry"/>
                </mxCell>
                <mxCell id="RhYwi4Nr0WYsUU9BLPxB-179" value="&lt;font style=&quot;font-size: 32px;&quot;&gt;&lt;b&gt;My Portfolio&lt;/b&gt;&lt;/font&gt;" style="text;html=1;strokeColor=none;fillColor=none;align=center;verticalAlign=middle;whiteSpace=wrap;rounded=0;" parent="1" vertex="1">
                    <mxGeometry x="4020" y="1100" width="230" height="80" as="geometry"/>
                </mxCell>
                <mxCell id="RhYwi4Nr0WYsUU9BLPxB-180" value="&lt;font size=&quot;1&quot; style=&quot;&quot;&gt;&lt;b style=&quot;font-size: 24px;&quot;&gt;Lets Get in Contact&lt;/b&gt;&lt;/font&gt;" style="text;html=1;strokeColor=none;fillColor=none;align=center;verticalAlign=middle;whiteSpace=wrap;rounded=0;" parent="1" vertex="1">
                    <mxGeometry x="4040" y="1703.5" width="250" height="30" as="geometry"/>
                </mxCell>
                <mxCell id="RhYwi4Nr0WYsUU9BLPxB-181" value="&lt;font face=&quot;Helvetica&quot;&gt;&lt;span style=&quot;font-size: 20px;&quot;&gt;Send Message&lt;/span&gt;&lt;/font&gt;" style="rounded=1;whiteSpace=wrap;html=1;arcSize=8;fontFamily=Teko;fontSource=https%3A%2F%2Ffonts.googleapis.com%2Fcss%3Ffamily%3DTeko;fontSize=32;align=center;fillColor=#6666FF;strokeColor=none;" parent="1" vertex="1">
                    <mxGeometry x="4050" y="1812" width="240" height="43" as="geometry"/>
                </mxCell>
                <mxCell id="RhYwi4Nr0WYsUU9BLPxB-182" value="&lt;font style=&quot;font-size: 16px;&quot;&gt;&amp;nbsp; &amp;nbsp;Topic&lt;/font&gt;" style="rounded=1;whiteSpace=wrap;html=1;align=left;arcSize=12;" parent="1" vertex="1">
                    <mxGeometry x="4050" y="1753.5" width="240" height="40" as="geometry"/>
                </mxCell>
                <mxCell id="RhYwi4Nr0WYsUU9BLPxB-183" value="&lt;font style=&quot;font-size: 16px;&quot;&gt;&amp;nbsp; &amp;nbsp;Your Message&lt;br&gt;&lt;br&gt;&lt;br&gt;&lt;br&gt;&lt;/font&gt;" style="rounded=1;whiteSpace=wrap;html=1;arcSize=5;align=left;" parent="1" vertex="1">
                    <mxGeometry x="4310" y="1753.5" width="370" height="100" as="geometry"/>
                </mxCell>
                <mxCell id="RhYwi4Nr0WYsUU9BLPxB-184" value="&lt;font style=&quot;&quot;&gt;&lt;font style=&quot;font-size: 24px;&quot;&gt;&lt;b&gt;Andrew Forster &lt;br&gt;&lt;/b&gt;&lt;/font&gt;&lt;br&gt;&lt;span style=&quot;font-size: 16px;&quot;&gt;Software Developer&amp;nbsp; |&amp;nbsp;&amp;nbsp;&lt;/span&gt;&lt;span style=&quot;font-size: 16px;&quot;&gt;contact@andrewjf.com&lt;br&gt;&lt;/span&gt;&lt;br&gt;© 2023 All Rights Reserved.&lt;br&gt;&lt;/font&gt;" style="text;html=1;strokeColor=none;fillColor=none;align=left;verticalAlign=middle;whiteSpace=wrap;rounded=0;" parent="1" vertex="1">
                    <mxGeometry x="4050" y="1913.5" width="340" height="110" as="geometry"/>
                </mxCell>
                <mxCell id="RhYwi4Nr0WYsUU9BLPxB-185" value="" style="rounded=1;whiteSpace=wrap;html=1;fillColor=#6666FF;strokeColor=none;" parent="1" vertex="1">
                    <mxGeometry x="4040" y="1313.5" width="280" height="70" as="geometry"/>
                </mxCell>
                <mxCell id="RhYwi4Nr0WYsUU9BLPxB-186" value="&lt;span style=&quot;font-size: 20px;&quot;&gt;&lt;br&gt;&lt;br&gt;&lt;br&gt;&lt;br&gt;&lt;br&gt;&amp;nbsp; &amp;nbsp;Project Name&lt;/span&gt;" style="rounded=1;whiteSpace=wrap;html=1;arcSize=6;align=left;fillColor=none;" parent="1" vertex="1">
                    <mxGeometry x="4040" y="1196.5" width="280" height="187" as="geometry"/>
                </mxCell>
                <mxCell id="RhYwi4Nr0WYsUU9BLPxB-187" value="" style="rounded=1;whiteSpace=wrap;html=1;fillColor=#6666FF;strokeColor=none;" parent="1" vertex="1">
                    <mxGeometry x="4355" y="1316.75" width="280" height="70" as="geometry"/>
                </mxCell>
                <mxCell id="RhYwi4Nr0WYsUU9BLPxB-188" value="&lt;span style=&quot;font-size: 20px;&quot;&gt;&lt;br&gt;&lt;br&gt;&lt;br&gt;&lt;br&gt;&lt;br&gt;&amp;nbsp; &amp;nbsp;Project Name&lt;/span&gt;" style="rounded=1;whiteSpace=wrap;html=1;arcSize=6;align=left;fillColor=none;" parent="1" vertex="1">
                    <mxGeometry x="4355" y="1199.75" width="280" height="187" as="geometry"/>
                </mxCell>
                <mxCell id="RhYwi4Nr0WYsUU9BLPxB-189" value="" style="rounded=1;whiteSpace=wrap;html=1;fillColor=#6666FF;strokeColor=none;" parent="1" vertex="1">
                    <mxGeometry x="4040" y="1530.25" width="280" height="70" as="geometry"/>
                </mxCell>
                <mxCell id="RhYwi4Nr0WYsUU9BLPxB-190" value="&lt;span style=&quot;font-size: 20px;&quot;&gt;&lt;br&gt;&lt;br&gt;&lt;br&gt;&lt;br&gt;&lt;br&gt;&amp;nbsp; &amp;nbsp;Project Name&lt;/span&gt;" style="rounded=1;whiteSpace=wrap;html=1;arcSize=6;align=left;fillColor=none;" parent="1" vertex="1">
                    <mxGeometry x="4040" y="1413.25" width="280" height="187" as="geometry"/>
                </mxCell>
                <mxCell id="RhYwi4Nr0WYsUU9BLPxB-192" value="" style="rounded=1;whiteSpace=wrap;html=1;arcSize=6;align=left;fillColor=default;" parent="1" vertex="1">
                    <mxGeometry x="4040" y="1180" width="600" height="430" as="geometry"/>
                </mxCell>
                <mxCell id="RhYwi4Nr0WYsUU9BLPxB-191" value="&lt;font style=&quot;font-size: 20px;&quot;&gt;&amp;nbsp; &amp;nbsp;Project Name&lt;br&gt;&lt;br&gt;&lt;br&gt;&lt;br&gt;&lt;br&gt;&lt;br&gt;&lt;br&gt;&lt;br&gt;&lt;/font&gt;" style="rounded=1;whiteSpace=wrap;html=1;fillColor=#6666FF;strokeColor=none;align=left;arcSize=5;" parent="1" vertex="1">
                    <mxGeometry x="4040" y="1390" width="600" height="221.75" as="geometry"/>
                </mxCell>
                <mxCell id="RhYwi4Nr0WYsUU9BLPxB-193" value="&lt;span style=&quot;font-size: 20px;&quot;&gt;&amp;nbsp; &amp;nbsp;Unfinished&lt;/span&gt;" style="rounded=1;whiteSpace=wrap;html=1;fillColor=#FF4A3D;strokeColor=none;align=left;" parent="1" vertex="1">
                    <mxGeometry x="4450" y="1400" width="175" height="30" as="geometry"/>
                </mxCell>
            </root>
        </mxGraphModel>
    </diagram>
</mxfile>